<?xml version="1.0" encoding="UTF-8"?>
<svg width="25px" height="47px" viewBox="0 0 25 47" version="1.1" xmlns="http://www.w3.org/2000/svg" xmlns:xlink="http://www.w3.org/1999/xlink">
    <!-- Generator: Sketch 41.2 (35397) - http://www.bohemiancoding.com/sketch -->
    <title>ribbon</title>
    <desc>Created with Sketch.</desc>
    <defs></defs>
    <g id="Page-1" stroke="none" stroke-width="1" fill="none" fill-rule="evenodd">
        <g id="ribbon">
            <g id="layer1" transform="translate(0.098560, 0.121050)">
                <path d="M0.52997,11.87263 C0.55197,10.57147 3.19838,0.02982 12.48321,0.36063 C21.78977,0.69143 24.01707,10.68173 23.99505,11.98289 C23.99505,13.30612 16.29829,8.21173 12.37286,8.18968 C8.46944,8.16758 0.50796,13.17381 0.52997,11.87263 Z" id="path3878" fill="#F5990A"></path>
                <path d="M0.52997,11.87263 C0.55197,10.57147 3.19838,0.02982 12.48321,0.36063 C21.78977,0.69143 24.01707,10.68173 23.99505,11.98289 C23.99505,13.30612 16.29829,8.21173 12.37286,8.18968 C8.46944,8.16758 0.50796,13.17381 0.52997,11.87263" id="path3880" stroke="#000000" stroke-width="0.25"></path>
                <path d="M19.16538,2.80858 C20.0256,3.77895 26.20062,9.07183 23.39956,15.57764 C20.6208,22.06141 8.42514,40.63059 5.18325,45.98971 C3.72783,43.07859 3.2647,42.85789 0.37559,37.94017 C3.61748,32.33834 15.04127,15.5556 18.1508,9.75548 C21.2606,3.95536 18.1288,2.32341 19.16538,2.80858 L19.16538,2.80858 Z" id="path3882" fill="#F5990A"></path>
                <path d="M19.16538,2.80858 C20.0256,3.77895 26.20062,9.07183 23.39956,15.57764 C20.6208,22.06141 8.42514,40.63059 5.18325,45.98971 C3.72783,43.07859 3.2647,42.85789 0.37559,37.94017 C3.61748,32.33834 15.04127,15.5556 18.1508,9.75548 C21.2606,3.95536 18.1288,2.32341 19.16538,2.80858" id="path3884" stroke="#000000" stroke-width="0.25"></path>
                <path d="M5.40395,2.74243 C4.54373,3.71279 -1.6533,9.00565 1.14747,15.48945 C3.94824,21.99526 16.16621,40.56455 19.4081,45.92339 C20.86352,43.01227 21.32664,42.79185 24.23776,37.87385 C20.97386,32.2723 9.52778,15.48945 6.41825,9.68933 C3.30873,3.88921 6.44025,2.23519 5.40395,2.74243 L5.40395,2.74243 Z" id="path3886" fill="#F5990A"></path>
                <path d="M5.40395,2.74243 C4.54373,3.71279 -1.6533,9.00565 1.14747,15.48945 C3.94824,21.99526 16.16621,40.56455 19.4081,45.92339 C20.86352,43.01227 21.32664,42.79185 24.23776,37.87385 C20.97386,32.2723 9.52778,15.48945 6.41825,9.68933 C3.30873,3.88921 6.44025,2.23519 5.40395,2.74243" id="path3888" stroke="#000000" stroke-width="0.25"></path>
            </g>
        </g>
    </g>
</svg>